<svg width="300" height="300" viewBox="0 0 300 300" fill="none" xmlns="http://www.w3.org/2000/svg">
<path d="M150 0C232.843 0 300 67.1573 300 150C300 232.843 232.843 300 150 300C67.1573 300 0 232.843 0 150C0 67.1573 67.1573 0 150 0ZM150 90C116.863 90 90 116.863 90 150C90 183.137 116.863 210 150 210C183.137 210 210 183.137 210 150C210 116.863 183.137 90 150 90Z" fill="#FF4612"/>
<path d="M150 95C180.376 95 205 119.624 205 150C205 180.376 180.376 205 150 205C119.624 205 95 180.376 95 150C95 119.624 119.624 95 150 95ZM150 140.833C144.937 140.833 140.833 144.937 140.833 150C140.833 155.063 144.937 159.167 150 159.167C155.063 159.167 159.167 155.063 159.167 150C159.167 144.937 155.063 140.833 150 140.833Z" fill="#FC9C8C"/>
</svg>
