<svg width="300" height="300" viewBox="0 0 300 300" fill="none" xmlns="http://www.w3.org/2000/svg">
<path d="M150 0C232.843 0 300 67.1573 300 150C300 232.843 232.843 300 150 300C67.1573 300 0 232.843 0 150C0 67.1573 67.1573 0 150 0ZM150 85C114.101 85 85 114.101 85 150C85 185.899 114.101 215 150 215C185.899 215 215 185.899 215 150C215 114.101 185.899 85 150 85Z" fill="#FC4516"/>
<path d="M150 90C183.137 90 210 116.863 210 150C210 183.137 183.137 210 150 210C116.863 210 90 183.137 90 150C90 116.863 116.863 90 150 90ZM150 140.77C144.902 140.77 140.77 144.902 140.77 150C140.77 155.098 144.902 159.23 150 159.23C155.098 159.23 159.23 155.098 159.23 150C159.23 144.902 155.098 140.77 150 140.77Z" fill="#FC9C8C"/>
</svg>
