<svg width="300" height="300" viewBox="0 0 300 300" fill="none" xmlns="http://www.w3.org/2000/svg">
<path d="M150 80C188.66 80 220 111.34 220 150C220 188.66 188.66 220 150 220C111.34 220 80 188.66 80 150C80 111.34 111.34 80 150 80ZM150.23 141C145.133 141 141 145.133 141 150.23C141 155.328 145.133 159.462 150.23 159.462C155.328 159.462 159.462 155.328 159.462 150.23C159.462 145.133 155.328 141 150.23 141Z" fill="#FC9C8C"/>
<path d="M150 0C232.843 0 300 67.1573 300 150C300 232.843 232.843 300 150 300C67.1573 300 0 232.843 0 150C0 67.1573 67.1573 0 150 0ZM150 75C108.579 75 75 108.579 75 150C75 191.421 108.579 225 150 225C191.421 225 225 191.421 225 150C225 108.579 191.421 75 150 75Z" fill="#FC4516"/>
</svg>
